# xmcd
#
# Track frame offsets:
#       150
#       15960
#       31463
#       50713
#       68355
#       81475
#       99178
#       125473
#       143643
#       158603
#       179083
#       197020
#       213593
#       249485
#       266348
#       274495
#
# Disc length: 3816 seconds
#
# Revision: 1
# Processed by: cddbd v1.5.2PL0 Copyright (c) Steve Scherf et al.
# Submitted via: FreeDbEdit v0.1
#
DISCID=de0ee610
DTITLE=Janis Joplin - Greatest Hits
DYEAR=1991
DGENRE=Rock
TTITLE0=A Woman Left Lonley
TTITLE1=Get It While You Can
TTITLE2=Piece of My Heart
TTITLE3=Try
TTITLE4=Down on Me
TTITLE5=Half Moon
TTITLE6=Combination of the Two
TTITLE7=Summertime
TTITLE8=Trust Me
TTITLE9=Me and Bobby McGee
TTITLE10=Cry Baby
TTITLE11=Move Over
TTITLE12=Ball and Chain
TTITLE13=My Baby
TTITLE14=Mercedes Benz
TTITLE15=Bye Bye Baby
EXTD=
EXTT0=
EXTT1=
EXTT2=
EXTT3=
EXTT4=
EXTT5=
EXTT6=
EXTT7=
EXTT8=
EXTT9=
EXTT10=
EXTT11=
EXTT12=
EXTT13=
EXTT14=
EXTT15=
PLAYORDER=
